<?xml version="1.0" standalone="no"?>
<!DOCTYPE svg PUBLIC "-//W3C//DTD SVG 20010904//EN"
 "http://www.w3.org/TR/2001/REC-SVG-20010904/DTD/svg10.dtd">
<svg version="1.0" xmlns="http://www.w3.org/2000/svg"
 width="1037.000000pt" height="1037.000000pt" viewBox="0 0 1037.000000 1037.000000"
 preserveAspectRatio="xMidYMid meet">
<metadata>
Created by potrace 1.14, written by Peter Selinger 2001-2017
</metadata>
<g transform="translate(0.000000,1037.000000) scale(0.100000,-0.100000)"
fill="#000000" stroke="none">
<path d="M5460 8446 c14 -18 13 -19 -13 -12 -19 4 -26 3 -22 -4 3 -5 1 -10 -4
-10 -6 0 -11 6 -11 13 0 8 -17 12 -50 12 -64 0 -65 -13 -2 -18 39 -3 36 -4
-20 -5 -37 -1 -69 2 -72 7 -4 5 4 7 16 5 21 -4 21 -4 3 5 -11 4 -24 6 -30 3
-15 -9 -68 -9 -82 1 -6 4 -14 4 -17 -2 -3 -5 -20 -7 -36 -5 -40 7 -38 -3 3
-16 l32 -10 -35 6 c-19 3 -46 5 -60 5 -14 1 -31 6 -39 12 -11 9 -13 9 -8 1 7
-12 -48 -28 -64 -18 -5 3 -9 0 -9 -5 0 -6 8 -11 17 -11 9 0 14 -2 11 -5 -3 -3
-25 -1 -49 4 -39 9 -42 8 -25 -5 23 -16 14 -19 -15 -3 -11 5 -16 15 -13 21 4
7 3 8 -5 4 -6 -4 -8 -12 -5 -18 5 -7 -2 -9 -19 -6 -15 3 -24 1 -21 -3 3 -5 -2
-9 -11 -9 -9 0 -13 -4 -10 -10 3 -5 1 -10 -4 -10 -6 0 -11 4 -11 8 0 12 -39
12 -46 0 -4 -6 -10 -5 -15 3 -7 12 -9 12 -9 0 0 -11 -3 -11 -15 -1 -13 11 -14
10 -9 -6 4 -10 4 -16 -1 -12 -11 10 -47 -11 -40 -23 4 -5 2 -9 -4 -9 -5 0 -11
5 -13 11 -3 9 -10 9 -26 0 -12 -7 -28 -9 -35 -6 -6 4 -3 -1 8 -9 18 -16 18
-16 -15 -10 -29 6 -33 5 -26 -11 5 -15 4 -16 -9 -5 -13 11 -18 8 -17 -10 0 -3
-12 -5 -26 -4 -15 0 -29 -2 -32 -5 -3 -3 -14 -11 -25 -18 -11 -6 -19 -15 -18
-21 1 -5 -9 -8 -23 -6 -14 1 -23 0 -20 -3 3 -3 -2 -12 -12 -20 -9 -8 -11 -11
-3 -7 9 4 12 3 8 -3 -4 -6 -18 -9 -32 -7 -23 2 -24 0 -13 -14 7 -9 8 -13 2 -9
-6 3 -21 -7 -33 -24 -19 -26 -25 -28 -39 -17 -10 8 -13 9 -9 1 4 -6 3 -14 -3
-18 -6 -4 -8 -10 -5 -14 8 -14 -43 -54 -61 -47 -14 5 -15 4 -4 -9 11 -13 11
-18 0 -28 -7 -7 -10 -7 -7 -1 3 6 0 11 -8 11 -10 0 -11 -5 -4 -19 10 -18 9
-19 -13 -22 -7 -1 -13 -11 -12 -23 0 -12 -4 -19 -9 -16 -6 4 -8 -1 -3 -12 5
-15 4 -16 -8 -6 -11 9 -16 9 -22 0 -4 -7 -3 -9 3 -6 6 4 13 0 17 -8 3 -8 2
-14 -2 -14 -19 3 -25 -2 -12 -11 13 -8 12 -10 -4 -10 -16 0 -17 -2 -5 -17 8
-9 9 -14 3 -10 -7 4 -14 0 -18 -8 -3 -8 0 -15 7 -15 8 0 9 -3 1 -8 -14 -9 -27
-45 -14 -37 6 3 10 1 10 -4 0 -6 -4 -11 -9 -11 -5 0 -11 -15 -14 -32 -8 -52
-13 -67 -22 -75 -4 -4 -5 -1 -1 7 4 8 1 6 -8 -4 -8 -10 -13 -23 -10 -27 3 -5
0 -9 -5 -9 -6 0 -11 -7 -11 -15 0 -9 -7 -18 -15 -21 -8 -4 -12 -10 -9 -15 3
-5 0 -9 -6 -9 -6 0 -9 -4 -6 -8 3 -5 -4 -16 -15 -25 -11 -10 -17 -22 -14 -27
3 -6 1 -10 -5 -10 -6 0 -8 -4 -5 -10 3 -5 1 -10 -5 -10 -6 0 -8 -4 -5 -10 3
-5 -2 -10 -11 -10 -10 0 -14 -3 -11 -7 4 -3 2 -12 -4 -19 -6 -8 -9 -21 -5 -29
3 -8 1 -15 -5 -15 -6 0 -9 -7 -5 -15 3 -8 2 -14 -2 -14 -20 3 -23 -3 -11 -18
9 -11 10 -14 2 -9 -9 5 -16 -7 -24 -39 -6 -25 -15 -45 -20 -45 -5 0 -6 -7 -2
-15 3 -9 -2 -22 -13 -31 -17 -12 -17 -13 -1 -8 23 8 22 4 -18 -154 -19 -76
-41 -173 -48 -217 l-13 -80 -272 -7 c-283 -7 -416 -18 -516 -44 -68 -18 -172
-63 -215 -93 -22 -16 -31 -18 -41 -8 -10 9 -11 9 -6 0 7 -12 -5 -18 -27 -14
-5 1 -6 -3 -3 -8 3 -5 -14 -27 -39 -49 -24 -22 -41 -42 -38 -46 4 -3 -1 -6 -9
-6 -14 0 -29 -20 -32 -42 -1 -3 -5 -10 -10 -15 -5 -5 -6 -2 -2 7 4 8 -2 4 -13
-9 -12 -12 -18 -27 -15 -32 3 -5 0 -9 -6 -9 -6 0 -8 -5 -5 -10 4 -6 1 -9 -7
-8 -7 2 -12 -5 -12 -14 1 -10 -4 -18 -10 -18 -17 0 -40 -45 -31 -61 6 -8 4
-10 -5 -4 -10 6 -12 4 -7 -8 4 -12 2 -14 -11 -10 -15 6 -15 5 -3 -11 12 -15
12 -17 0 -14 -9 2 -14 -5 -13 -19 0 -12 -3 -20 -8 -17 -12 8 -29 -45 -23 -70
5 -17 4 -18 -5 -6 -9 12 -10 9 -5 -13 4 -21 3 -27 -6 -21 -9 5 -10 0 -5 -20 3
-14 2 -26 -3 -26 -5 0 -11 -13 -13 -29 -3 -18 0 -28 5 -24 7 4 8 -18 3 -60 -4
-46 -3 -67 4 -67 7 0 9 -8 5 -20 -4 -11 -2 -20 4 -20 6 0 8 -6 5 -14 -3 -7 1
-20 8 -27 7 -8 13 -20 14 -26 2 -30 5 -34 14 -28 6 4 7 -1 3 -11 -4 -11 -2
-15 4 -11 6 4 10 -1 9 -11 0 -9 5 -16 11 -15 7 2 12 0 12 -5 -3 -20 2 -32 13
-26 6 4 8 3 4 -4 -3 -6 1 -17 10 -26 8 -9 12 -22 8 -28 -4 -7 -3 -10 1 -5 5 4
18 -1 29 -10 l21 -18 -20 25 -20 25 21 -18 c13 -10 20 -27 19 -41 -2 -19 1
-23 20 -20 18 1 22 -2 18 -14 -4 -10 -3 -14 2 -10 4 4 14 0 22 -8 8 -8 20 -11
26 -7 7 3 9 3 5 -2 -4 -4 -1 -13 6 -20 22 -22 89 -55 99 -48 6 3 7 1 3 -5 -4
-7 -1 -12 6 -12 8 0 77 -31 154 -69 196 -97 446 -181 542 -181 17 0 32 -3 32
-7 0 -73 25 -300 38 -352 18 -68 18 -69 -1 -59 -25 13 -177 164 -209 208 l-26
35 -31 -65 c-40 -86 -61 -170 -61 -248 0 -67 21 -166 47 -215 14 -28 14 -29
-9 -22 -19 6 -67 25 -177 72 -36 16 29 -205 104 -352 111 -216 294 -477 409
-582 143 -131 313 -202 483 -203 l62 0 83 -76 c215 -197 414 -320 630 -390 67
-21 88 -33 92 -49 3 -11 22 -40 42 -64 l37 -42 -17 -102 c-9 -55 -22 -107 -28
-114 -6 -8 -42 -32 -80 -54 -38 -22 -98 -62 -133 -89 -97 -73 -95 -73 -238
-72 -120 1 -133 3 -166 25 -68 45 -154 132 -276 277 -180 215 -284 303 -508
430 -42 24 -77 50 -77 57 0 29 -28 10 -39 -27 l-12 -39 -47 92 c-45 87 -195
297 -212 297 -5 0 -14 -17 -20 -37 -6 -21 -18 -58 -27 -82 l-15 -43 -33 70
c-19 39 -48 111 -66 160 -18 50 -37 88 -42 85 -5 -3 -6 4 -2 17 5 17 4 21 -6
15 -9 -6 -11 -3 -6 8 3 9 3 16 -1 15 -14 -3 -42 14 -37 22 3 5 -4 6 -14 3 -25
-6 -31 -30 -37 -143 -6 -140 -6 -140 -86 -106 -102 43 -102 0 0 -62 l72 -43
-2 -92 c-2 -51 1 -103 5 -117 5 -15 5 -20 0 -13 -5 7 -24 15 -41 17 -20 2 -40
14 -55 31 -12 16 -24 31 -27 34 -3 4 -16 12 -30 19 -14 7 -65 44 -115 82 -62
49 -102 72 -128 77 -20 3 -40 10 -43 14 -3 5 -13 9 -22 9 -9 0 -37 16 -62 36
-67 54 -127 86 -152 83 -15 -2 -44 14 -88 48 -36 29 -120 82 -187 120 -68 37
-123 71 -123 76 0 4 -4 6 -8 3 -4 -2 -57 24 -117 60 -71 42 -117 63 -130 60
-34 -9 -101 41 -174 127 -62 76 -168 187 -177 187 -2 0 0 -22 3 -49 3 -27 3
-61 -1 -76 l-7 -26 -62 34 c-79 45 -256 123 -296 132 -18 4 -60 29 -94 57 -85
69 -177 114 -177 88 0 -7 10 -33 23 -59 13 -25 22 -52 19 -60 -3 -9 0 -11 8
-6 9 5 11 4 6 -4 -5 -8 -22 -1 -54 22 -56 41 -172 101 -180 93 -3 -3 22 -63
56 -133 33 -71 57 -129 51 -131 -5 -2 -25 2 -45 8 -56 19 -65 0 -26 -54 29
-40 31 -46 16 -60 -14 -15 -14 -19 5 -45 12 -16 21 -33 21 -38 0 -5 22 -26 50
-46 53 -40 64 -71 30 -82 -11 -3 -20 -14 -20 -24 0 -20 86 -93 145 -124 22
-11 34 -22 27 -24 -6 -3 -10 -9 -6 -14 3 -5 -16 -9 -43 -9 -58 -1 -240 -24
-249 -32 -9 -10 138 -141 226 -201 55 -37 58 -42 53 -71 -4 -19 10 -38 63 -90
62 -60 66 -66 44 -67 -14 -1 -29 -2 -35 -4 -5 -1 -36 -3 -67 -3 -32 -1 -58 -6
-58 -12 0 -14 69 -47 126 -61 50 -12 87 -36 79 -50 -3 -4 31 -5 75 -2 44 3 92
2 106 -1 14 -4 58 -37 97 -74 86 -80 113 -100 224 -163 47 -26 81 -49 76 -52
-5 -3 -54 1 -108 9 -129 18 -235 19 -235 1 0 -12 90 -63 155 -87 23 -9 26 -13
15 -21 -23 -15 30 -53 129 -91 50 -19 86 -40 88 -49 5 -19 44 -39 74 -39 26 0
34 -24 19 -61 -7 -16 -10 -32 -7 -35 8 -8 73 22 95 44 20 20 20 20 76 -14 31
-18 56 -31 56 -28 0 2 10 -1 23 -8 12 -6 29 -13 38 -15 81 -13 39 -20 -157
-26 -233 -7 -553 -31 -644 -47 -65 -12 -80 -24 -59 -45 56 -56 585 -71 2601
-73 785 -1 1434 -5 1443 -8 8 -3 15 -12 15 -20 0 -19 69 -94 96 -104 48 -19
98 9 177 98 l28 31 490 1 490 1 17 -33 c9 -18 36 -52 58 -75 33 -34 48 -43 76
-43 49 0 97 36 129 97 l27 52 989 1 c1720 1 2403 34 2325 112 -24 24 -249 43
-654 54 -144 4 -226 10 -222 16 4 5 15 7 26 5 11 -3 17 -3 14 0 -3 3 46 23
108 44 125 41 217 85 315 146 l64 41 -40 23 c-57 33 -49 59 33 105 51 29 64
41 64 60 0 13 -4 24 -10 24 -5 0 -10 8 -10 18 0 12 19 23 73 39 83 26 97 34
101 56 1 9 23 35 49 57 46 40 60 74 35 82 -7 3 50 45 125 94 76 49 146 94 155
100 13 10 0 17 -78 42 -52 16 -128 36 -167 42 -40 7 -73 17 -73 21 0 4 14 17
30 29 17 12 39 38 49 59 14 27 35 45 76 65 31 16 89 55 130 87 108 85 111 98
20 79 -85 -18 -90 -12 -55 62 29 60 40 126 21 113 -35 -21 1 76 59 159 16 25
30 48 30 51 0 18 -155 -30 -195 -60 -29 -21 -62 -24 -49 -4 3 5 -1 12 -10 15
-12 4 -59 -13 -118 -44 -4 -2 -1 18 7 45 20 64 19 66 -12 49 -36 -18 -91 -77
-133 -141 -42 -63 -130 -156 -142 -149 -11 7 -10 188 3 279 6 42 8 79 6 81 -6
6 -188 -210 -242 -286 -24 -34 -46 -55 -54 -52 -7 2 -40 -22 -72 -54 -32 -32
-59 -55 -59 -50 0 5 -6 3 -14 -3 -12 -10 -17 -8 -25 7 -8 15 -6 23 9 37 32 29
23 39 -16 16 -19 -12 -42 -21 -50 -21 -35 0 -95 -43 -131 -93 -54 -75 -118
-147 -132 -147 -7 0 -9 -5 -5 -12 4 -7 3 -9 -1 -5 -12 10 -15 38 -4 31 5 -3 9
4 9 15 0 12 -3 21 -6 21 -4 0 -36 -22 -73 -48 -36 -27 -106 -76 -156 -110 -49
-34 -128 -93 -174 -132 -46 -38 -87 -67 -92 -64 -5 3 -9 -1 -9 -8 0 -9 -3 -9
-10 2 -5 8 -7 28 -4 44 2 15 0 34 -7 42 -7 9 -9 43 -4 106 9 120 -13 212 -40
168 -4 -6 -11 -8 -16 -5 -5 3 -6 -2 -2 -11 4 -11 2 -15 -4 -11 -6 4 -33 -37
-63 -96 -29 -56 -57 -108 -63 -115 -5 -7 -44 -30 -87 -53 -193 -100 -342 -274
-524 -609 -58 -106 -109 -170 -157 -195 -16 -9 -79 -17 -165 -21 l-139 -6 -70
57 c-38 31 -105 77 -148 103 -88 54 -101 75 -115 200 -8 71 -8 75 19 112 16
22 36 56 46 76 16 33 30 43 133 89 300 134 508 315 672 584 12 20 31 28 104
43 128 26 249 88 348 179 97 90 295 353 358 475 42 81 98 222 98 245 0 14 -20
11 -109 -15 -48 -13 -80 -19 -77 -12 80 178 99 262 100 438 1 80 -2 149 -6
153 -4 4 -33 -15 -66 -43 -113 -94 -186 -131 -400 -202 -110 -37 -114 -38
-108 -17 34 115 49 233 50 401 l1 179 135 56 c209 87 369 182 508 299 28 24
52 41 52 37 0 -11 100 96 101 109 1 6 1 14 0 18 0 4 7 4 17 1 9 -3 14 -3 10 2
-4 4 4 22 18 41 15 19 23 38 18 45 -5 8 -3 9 6 4 10 -6 12 -4 7 9 -4 10 -3 15
3 11 12 -8 43 62 37 80 -3 6 3 18 13 25 11 8 17 17 14 22 -10 15 9 8 23 -9 14
-17 14 -17 9 0 -8 25 1 21 17 -9 l14 -26 23 54 c13 29 22 59 21 66 -1 6 3 12
8 12 5 0 7 15 4 34 -3 19 -1 36 6 40 6 4 11 26 10 49 0 33 -2 38 -9 22 -8 -19
-9 -19 -9 3 -1 12 3 22 8 22 4 0 6 11 3 25 -2 14 -8 22 -14 19 -5 -3 -6 6 -2
22 5 19 4 25 -4 20 -8 -4 -10 -2 -6 8 8 20 -32 94 -70 130 -17 16 -25 26 -18
22 6 -4 12 -3 12 3 0 5 -12 16 -27 23 -18 9 -27 20 -25 32 3 14 -1 17 -13 12
-9 -3 -13 -2 -10 3 3 5 -4 16 -16 25 -12 8 -18 19 -15 24 3 6 -2 8 -12 5 -10
-2 -41 11 -73 33 -66 45 -209 113 -309 148 -86 29 -332 89 -435 106 -38 6 -95
15 -125 20 -30 5 -84 11 -120 15 -36 3 -86 8 -112 11 l-48 6 -16 56 c-33 113
-108 293 -167 402 -23 41 -40 81 -39 89 2 8 -1 10 -8 6 -9 -6 -9 -2 0 15 7 12
8 20 3 17 -4 -3 -17 7 -27 21 -12 16 -14 23 -5 18 8 -4 5 -1 -5 8 -10 8 -24
13 -30 10 -6 -3 -2 2 8 10 17 14 18 16 3 16 -20 0 -22 21 -4 39 10 10 9 11 -5
6 -10 -4 -18 -11 -18 -17 0 -5 -4 -6 -10 -3 -5 3 -10 13 -10 21 0 8 4 12 10 9
6 -4 7 1 3 11 -4 12 -8 14 -11 6 -3 -10 -7 -10 -18 -1 -8 6 -11 15 -8 20 3 5
0 8 -7 7 -7 -2 -13 3 -14 11 0 8 -9 17 -20 22 -11 4 -17 8 -12 8 4 1 -1 9 -10
19 -10 11 -20 18 -23 17 -3 -1 -15 9 -28 23 l-23 24 23 -7 c17 -4 19 -4 8 4
-9 5 -22 11 -30 13 -23 5 -60 40 -53 51 3 6 2 7 -4 4 -5 -3 -17 3 -27 14 -9
12 -24 18 -31 15 -8 -3 -17 0 -21 6 -4 7 -3 8 4 4 7 -4 12 -3 12 2 0 12 -29
24 -40 17 -5 -3 -12 0 -16 6 -5 8 -3 9 6 4 9 -6 11 -4 6 4 -5 7 -15 10 -23 7
-8 -3 -12 -2 -9 3 9 13 -21 34 -36 25 -7 -4 -10 -4 -6 1 11 11 -60 58 -74 49
-6 -4 -9 -3 -6 2 8 13 -14 31 -34 28 -9 -1 -19 5 -22 13 -4 9 -13 13 -22 9 -8
-3 -13 -2 -10 3 8 12 -22 23 -37 14 -7 -3 -9 -3 -5 2 13 14 -25 35 -40 23 -9
-8 -11 -7 -6 6 3 9 1 16 -5 16 -6 0 -11 -6 -11 -12 0 -7 -5 -5 -11 5 -5 9 -16
17 -24 17 -7 0 -21 7 -29 16 -15 14 -16 14 -17 -3 -1 -13 -3 -11 -9 7 -4 14
-8 19 -9 11 -1 -11 -4 -11 -18 0 -9 8 -19 14 -22 14 -3 0 -5 2 -4 5 1 3 -12 6
-29 7 -17 0 -34 6 -38 13 -5 9 -9 9 -14 1 -4 -6 -12 -9 -17 -5 -5 3 -7 9 -4
13 2 5 -6 6 -19 4 -13 -3 -27 0 -31 7 -5 8 -10 8 -21 -1 -10 -8 -14 -8 -14 -1
0 6 -15 11 -33 10 -19 -1 -40 3 -48 8 -8 5 -23 10 -34 10 -11 1 -30 2 -43 3
-13 0 -21 5 -18 9 2 4 -12 7 -32 7 -20 -1 -43 3 -50 8 -8 7 -18 4 -30 -7 -10
-9 -25 -16 -33 -15 -9 0 -7 3 4 8 18 7 18 8 1 21 -11 10 -15 10 -10 2 5 -9 -1
-12 -23 -10 -20 1 -31 8 -31 18 0 9 -3 11 -8 5 -4 -5 -18 -11 -32 -13 -18 -2
-21 0 -11 7 10 7 8 9 -12 8 -14 -1 -23 -5 -21 -9 8 -12 -44 -2 -63 13 -17 13
-17 13 -3 -5z m133 -33 c-7 -2 -21 -2 -30 0 -10 3 -4 5 12 5 17 0 24 -2 18 -5z
m-556 -9 c-3 -3 -12 -4 -19 -1 -8 3 -5 6 6 6 11 1 17 -2 13 -5z m1903 -580 c0
-8 -19 -13 -24 -6 -3 5 1 9 9 9 8 0 15 -2 15 -3z m1757 -1721 c-2 -16 -4 -5
-4 22 0 28 2 40 4 28 2 -13 2 -35 0 -50z m268 -2563 c-3 -5 -1 -10 6 -10 7 0
10 -3 6 -6 -9 -9 -28 6 -22 17 4 5 8 9 11 9 3 0 2 -4 -1 -10z m-2826 -820 c29
-22 59 -40 66 -40 14 0 31 -132 19 -151 -3 -6 -52 -41 -108 -77 -55 -36 -132
-91 -170 -123 l-68 -58 -139 -3 -139 -3 -34 37 c-45 47 -119 101 -227 167 -48
28 -92 58 -99 66 -16 19 -27 145 -12 145 5 0 32 15 58 33 45 30 53 32 99 25
126 -18 390 -20 524 -4 74 9 137 18 139 21 13 13 42 2 91 -35z"/>
<path d="M4261 8137 c-13 -21 -12 -21 5 -5 10 10 16 20 13 22 -3 3 -11 -5 -18
-17z"/>
<path d="M4193 8074 c-3 -9 -12 -13 -22 -9 -13 5 -14 4 -3 -7 10 -10 16 -8 34
10 13 13 17 22 10 22 -7 0 -15 -7 -19 -16z"/>
<path d="M4110 7996 c0 -2 7 -7 16 -10 8 -3 12 -2 9 4 -6 10 -25 14 -25 6z"/>
<path d="M7067 7689 c7 -7 15 -10 18 -7 3 3 -2 9 -12 12 -14 6 -15 5 -6 -5z"/>
<path d="M7227 7389 c7 -7 15 -10 18 -7 3 3 -2 9 -12 12 -14 6 -15 5 -6 -5z"/>
<path d="M3754 7129 c-3 -6 -2 -15 3 -20 5 -5 9 -1 9 11 0 23 -2 24 -12 9z"/>
<path d="M7895 6990 c-3 -5 -1 -10 4 -10 6 0 11 5 11 10 0 6 -2 10 -4 10 -3 0
-8 -4 -11 -10z"/>
<path d="M2720 6640 c-9 -6 -10 -10 -3 -10 6 0 15 5 18 10 8 12 4 12 -15 0z"/>
<path d="M8634 6049 c-4 -8 -3 -9 4 -5 7 4 12 3 12 -2 0 -6 7 -12 15 -16 10
-3 15 1 15 11 0 9 -3 13 -7 10 -3 -4 -12 -2 -19 4 -8 7 -14 6 -20 -2z"/>
<path d="M9029 3563 c-13 -16 -12 -17 4 -4 16 13 21 21 13 21 -2 0 -10 -8 -17
-17z"/>
</g>
</svg>
